FFmpeg version SVN-r25716, Copyright (c) 2000-2010 the FFmpeg developers  built on Nov 10 2010 12:23:18 with gcc 4.1.2 20080704 (Red Hat 4.1.2-48)  configuration: --enable-libmp3lame --enable-shared --disable-mmx --arch=x86_64  libavutil     50.33. 0 / 50.33. 0  libavcore      0.12. 1 /  0.12. 1  libavcodec    52.94. 4 / 52.94. 4  libavformat   52.84. 0 / 52.84. 0  libavdevice   52. 2. 2 / 52. 2. 2  libavfilter    1.59. 0 /  1.59. 0  libswscale     0.12. 0 /  0.12. 0[mov,mp4,m4a,3gp,3g2,mj2 @ 0x1daf64c0] multiple edit list entries, a/v desync might occur, patch welcome[mov,mp4,m4a,3gp,3g2,mj2 @ 0x1daf64c0] max_analyze_duration reachedSeems stream 0 codec frame rate differs from container frame rate: 600.00 (600/1) -> 7.06 (120/17)Input #0, mov,mp4,m4a,3gp,3g2,mj2, from '/RAID10/data/converted_video_files/31201.mov':  Metadata:    major_brand     : qt      minor_version   : 537199360    compatible_brands: qt    Duration: 00:00:08.64, bitrate: 2790 kb/s    Stream #0.0(eng): Video: svq1, yuv410p, 675x450, 2787 kb/s, 7.06 fps, 7.06 tbr, 600 tbn, 600 tbc[buffer @ 0x1dafb9f0] w:675 h:450 pixfmt:yuv410p[ffsink @ 0x1dafbc60] auto-inserting filter 'auto-inserted scaler 0' between the filter 'src' and the filter 'out'[scale @ 0x1dafbf80] w:675 h:450 fmt:yuv410p -> w:675 h:450 fmt:yuv420p flags:0x4Output #0, flv, to '/RAID10/data/converted_video_files/31201.flv':  Metadata:    encoder         : Lavf52.84.0    Stream #0.0(eng): Video: flv, yuv420p, 675x450, q=2-31, 600 kb/s, 1k tbn, 24 tbcStream mapping:  Stream #0.0 -> #0.0Press [q] to stop encodingframe=   49 fps=  0 q=18.6 size=     528kB time=6.83 bitrate= 632.6kbits/s dup=0 drop=1    frame=   60 fps=  0 q=19.9 Lsize=     567kB time=8.38 bitrate= 554.3kbits/s dup=0 drop=1    video:566kB audio:0kB global headers:0kB muxing overhead 0.202041%